<svg version="1" xmlns="http://www.w3.org/2000/svg" width="1200" height="1200" viewBox="0 0 900.000000 900.000000"><path d="M425.9.4c-.2.2-4.9.6-10.4 1s-11.3.9-13 1.1c-1.6.2-7 .9-12 1.5C377.7 5.6 376 5.9 371 7c-2.5.5-5.8 1.1-7.5 1.4-19.8 2.9-61.4 15.6-90 27.6-18.5 7.7-56.4 27.7-65 34.3-.5.4-4.8 3.3-9.5 6.4-28.6 19-63.1 49.1-86 75.2-3.6 4.1-7 7.9-7.5 8.5-.6.6-2.6 3.1-4.5 5.6-1.9 2.5-4.2 5.3-5.1 6.3-2.5 2.8-19.8 27.1-24.6 34.6-17 26.6-33 58.7-43 86.1-5.1 13.9-11.6 34-12.8 39.9-.2.9-1.7 7.1-3.4 13.9-1.7 6.8-3.3 14.2-3.6 16.5-.4 2.3-1.1 6.1-1.6 8.4-1 4.9-2.7 16.5-3.5 23.8-.2 2.7-.6 5.9-.9 7-2.6 12.8-2.6 81.7 0 95 .2 1.1.7 4.5 1 7.5 3.2 31.9 17.8 88.1 30 115.5.7 1.6 2.1 5 3.1 7.5 4.4 10.7 21.1 42.7 29.6 56.5 7.9 12.8 22.6 34.3 28 41 18.8 23 23.2 28 39.3 43.9 13.5 13.5 29 27 44 38.5 2.2 1.7 4.5 3.4 5 3.9 4.3 3.3 15.6 11.2 16.1 11.2.3 0 2.3 1.3 4.3 2.8 5.8 4.6 29.4 18.2 45.8 26.5 24.1 12.2 57.1 24.9 82.2 31.6 11.1 3 27.9 7 32.1 7.7 2.6.4 9.2 1.6 10 1.9.3.1 3 .5 6 .9s6.6.9 8 1.1c5.6.9 18.5 2.3 30.5 3.4 10.5.9 59.8.7 70-.4 8.6-.9 34.9-4.2 39-5 57.9-10.6 107.4-29.1 156-58.3 6.1-3.6 11.5-7 12-7.4.6-.5 6.2-4.4 12.5-8.8 38.4-26.5 71.7-58.5 103.3-99.5 13.6-17.7 30-44.4 42.4-69 19.5-38.8 33.7-82.1 40.8-124.8.3-1.7 1-5.7 1.5-8.7.5-3 1.2-8.2 1.5-11.5.4-3.3.8-6.9 1-8.1 2.6-15.9 2.6-81.5 0-94.9-.2-1.1-.7-4.5-1-7.6-.3-3.1-.8-6.7-1-8-.3-1.3-.7-4.2-1-6.4-.6-4.9-.8-6-4-22.5-6.6-34.1-19.9-72.3-37.1-107-14.6-29.3-31.9-56.6-51-80.7-33.1-41.6-76.3-79.5-119.9-105.4-16.6-9.9-19.3-11.4-33.4-18.4-42-20.9-92.6-36.5-136.1-42-3-.4-6.2-.9-7.1-1-.9-.2-5.2-.6-9.5-1s-9-.9-10.4-1.2C482.9.8 426.4 0 425.9.4zm13.6 162.3c.4 2.1 1.7 6.7 2.8 10.3 2 5.9 2.6 15.3 1.8 27.7-.2 2.4-6.3 3.1-10.4 1.3-4.4-2-11.3-1.9-13.4.3-2 2-2.6 7.2-1.1 9.9.6 1.3 1.1 3.1.9 4.1-.1 1 .5 2.9 1.3 4.2 1.2 1.9 1.6 5.2 1.6 14.3v11.9l-3.8 1.1c-2.1.6-4.8 2.1-6.1 3.3-2.3 2.2-2.4 2.2-3.7.3-3.1-4.3-5.6-6.2-8.6-6.7-5-.7-9.9 1.3-12.6 5.3-2.4 3.6-2.5 4.3-.7 15.1l.6 3.6-6.3 2.3c-3.5 1.2-8.5 3.4-11.2 4.7-2.7 1.4-5.2 2.1-5.5 1.6-.3-.5-1.9-3-3.6-5.6-4.8-7.4-12.2-9.4-18.5-4.8-5.7 4.1-6.5 10.6-2.1 18.3l3 5.2-6.2 4.5c-3.4 2.4-8 5.9-10.1 7.8l-4 3.3-3.7-3.8c-4.4-4.7-8.5-6.5-12.8-5.7-4.5.8-7.6 3-9.4 6.6-2.3 4.9-1.1 9.7 4 15.6 4.2 5 4.3 5.4 2.8 7-1.4 1.3-6.4 7.9-13.3 17.3-.2.2-2.5-.8-5.3-2.3-8.2-4.7-15.1-3.7-18.9 2.6-4.2 6.8-1.8 13.6 6.2 18.3 3.1 1.9 4.7 3.4 4.4 4.4-.5 1.7-8.7 21.3-9.1 21.8-.1.1-2.4-.2-5.1-.9-6.6-1.5-9.8-1.4-12.9.7-5.2 3.4-7 10.7-4 16.4 1.6 3 7.9 7 11.2 7 4.1.1 4.6 1.3 3.4 8.5-.7 3.6-1.4 8.9-1.6 11.7-.3 2.8-.7 5.3-1 5.6-.2.3-3.2.6-6.4.7-8.6.3-13.6 4.2-14.4 11.2-.9 7.7 5.6 13.3 15.5 13.3 5.6 0 5.8.1 5.9 2.7.1 3.1.4 5.9 1.9 15.1.6 3.4.8 6.7.5 7.2-.3.4-2.3 1.1-4.6 1.5-5.3.9-10.6 5.6-11.5 10.1-.9 4.9.3 8.3 4 11.9 1.8 1.7 3.6 4.6 4 6.5.4 1.9.9 4.4 1.2 5.6.3 1.6-.4 2.3-3.4 3.3-3 1.1-10.7 4.4-13.4 5.8-.3.1-1.8-1.7-3.2-4.2-3.4-5.7-8.5-7.6-13.4-5.1-5.7 2.9-7 8.9-3.3 14.9 1.1 1.9 2.1 3.7 2.1 3.9 0 .3-2.6 2.5-5.7 4.9-3.2 2.4-6.4 4.9-7.1 5.6-1.8 1.8-1.8 1.8-6.6-2.2-5.7-4.6-9.6-4.7-14.1-.2-2.2 2.2-3.2 4-3 5.7.1 1.4.3 3.1.4 3.7 0 .7 1.6 3 3.5 5.1l3.5 3.8-2.4 3-2.4 2.9-3.6-7.9c-9-19.7-19-55.3-21.1-74.8-.3-2.9-.7-6.4-.9-7.8-1.7-10.1-2.3-43.7-1.1-56.5 1-10.1 1.7-15.9 2.2-19 6.9-44.1 22.7-84.9 46.5-120 20.8-30.7 49.9-59.8 78.4-78.5 5-3.3 9.5-6.3 10-6.8 1.1-.9 11.9-6.9 21.4-11.9 27.7-14.6 67.8-26.7 98.6-29.8 3.2-.3 6-.7 6.1-.8.1-.1 3.8-.3 8.2-.5l8-.3.7 3.8zm43-2.3c1.1.2 4.7.7 8 1.2 3.3.4 6.2.8 6.5.9.3 0 2.8.4 5.5.9 2.8.4 7.5 1.4 10.5 2.1 3 .8 6.7 1.6 8.1 1.9 6.1 1 29.3 8.7 40.2 13.2 15.3 6.4 37.2 18 48.4 25.6 3.5 2.4 4.2 3.3 4.1 6.1 0 1.7.3 4.1.6 5.2.5 1.5 0 2.4-2.3 3.8-2.8 1.6-3.1 1.6-5.9 0-6.7-3.8-12.5 2.4-8.7 9.3l1.9 3.5-2.5 2.4c-2.1 2.2-2.9 2.4-5.8 1.5-3-.8-3.6-.6-6.3 2-3.3 3.4-3.2 6.1.6 9.6 2.2 1.9 2.2 2.3.9 5.7-1.3 3.2-1.7 3.5-4.6 3-2.5-.4-3.7.1-5.5 2-3.3 3.5-2.7 7.6 1.5 10.2 2.8 1.7 3.2 2.5 3 5.5-.3 3-.7 3.5-3.6 4.1-8.4 1.7-8.1 11.5.5 13.8 2.4.6 2.9 1.3 3.2 4.4.1 2.4-.2 3.7-1 3.7-.6 0-1.9.6-2.7 1.4-1.4 1.3-2.7.6-10.6-5.4-4.9-3.8-9.1-7.4-9.3-7.9-.2-.6.8-3 2.2-5.4 6.1-10.3 0-21.5-10.9-20-4.4.6-7.2 2.8-10.6 8.3-1.7 2.8-3.2 5-3.4 5-.2 0-2.5-1.1-5.2-2.4-2.6-1.3-7.6-3.4-11.1-4.7-5.8-2.2-6.3-2.6-5.8-4.9 2.4-10.7 1.4-16.2-3.7-19.4-5.6-3.7-15-1.5-17.6 4l-1.1 2.5-2.8-1.9c-1.5-1.1-4.4-2.7-6.4-3.5l-3.8-1.6.1-11.6c.1-8.4.5-12 1.5-13 .8-.7 1.4-2.9 1.4-4.9 0-1.9.5-3.8 1.1-4.1.7-.5.8-8.3 0-10.2-.1-.1-1.6-.6-3.3-1.2-3.6-1.2-8.9-.6-12.8 1.3-1.7.9-3.5 1-5.7.4l-3.3-.9v-12.3c0-10.3.4-13.3 2-17.2 1.2-2.6 2.4-6.8 2.7-9.2l.6-4.4 9.6.6c5.3.3 10.5.8 11.6 1zm-24 59.7c2.2 1.3 5.2 3 6.7 3.6l2.7 1.2v22.9l-2.8 1c-2.8 1-2.9.9-3.5-2.2-2.2-11.9-20.9-11.5-23.3.4-.5 2.6-.8 2.7-3.2 1.9l-2.6-.9.1-11.3c.2-13.5.1-12.7 1.8-12.7.8 0 4.7-2.2 8.8-4.9 7-4.8 7.4-4.9 9.3-3.2 1.1.9 3.8 2.8 6 4.2zm181.2 8.8c11.7 10 26 24.7 35.3 36.1 2.5 3 4.7 5.7 5.1 6 1.1.9 18.1 25.5 18.7 27 .3.8 1.4 2.7 2.4 4.2 3.5 5 14.8 27.8 14.8 29.7 0 2.4-9.3 10.8-17.4 15.7-6.4 3.8-17.5 7.9-24.6 8.9-5 .8-19.2.8-22.9.1-5.1-1.1-13.7-3.8-14.8-4.8-.7-.6-1.3-2.3-1.3-3.9 0-6.3-9.5-12.2-15.8-9.8-1.8.7-3.3.7-4.7-.1-2.2-1.3-9-9.5-12.4-15.3l-2.3-3.8 2-4.3c3.4-7.1 1.1-14.5-5.3-17.1-3.9-1.7-4.2-2.8-3.9-12.5.3-10.3 2.7-20 7.5-29.9 3.2-6.6 5.8-10.1 12.2-16.6 6.3-6.3 16.6-14.1 20.4-15.4.1-.1 3.3 2.5 7 5.8zm-166.6 30.9c-.7.2-1.8-.1-2.3-.6-.8-.8-.4-.9 1.3-.5 1.3.4 1.8.8 1 1.1zm-27.7 33.9c-.2 16.3-4.2 33.1-8.4 35.3-3.1 1.7-4.8-1.9-4.9-10.5-.1-3.4-1.1-5.2-6.4-11.7-7.1-8.8-10.3-14.2-11.3-19.3-.5-2.6-.3-3.5.7-3.5.8-.1 5.2-.7 9.9-1.4s11.2-1.3 14.5-1.5l6-.2-.1 12.8zm34.6-10.4c5.6 1.1 6.5 1.5 6.2 3.2-.7 4.2-5.8 13.2-11.7 20.5-6 7.4-6.2 8-6.4 13.5-.1 3.8-.7 6.5-1.7 7.6-2.7 3-4.9.8-7.3-7.3-1.2-4-2.6-8.7-3.1-10.4-.6-1.7-1-9-1-16.3v-13.3l9.3.6c5 .4 12.1 1.3 15.7 1.9zm-72.7 9.4c1 3.1 4.9 10.4 8.7 16.3 3.9 5.9 7 11.2 7 11.8 0 .6-2.2 4.1-5 7.7-7 9.3-7.5 10.4-5.6 12.3 1.4 1.4 2 1.5 4.9.3 6.9-2.8 10.6-2.7 14.4.6 3.8 3.4 4.4 5.6 2.8 11-4.4 14.7-3.5 35 1.9 47.5.6 1.3.3 2-1 2.4-10.2 3.3-23 13.8-27.5 22.6-7.5 14.6-7.7 29.6-.5 44.3 6.2 12.4 17.9 22 31.1 25.2 8.8 2.1 23 1.1 29.4-2.2 2.2-1.1 2.9-1 5.2.7l2.7 2-1.9 4.2c-3.3 7.5.1 11.3 7.3 8.3l3.5-1.5 1.1 6.1c1.7 8.8 7.7 16.8 16 21.3.1 0-.6 2-1.7 4.4-2.1 4.6-1.9 8.6.5 11 1.4 1.4 8 1.8 16.4.8 3.3-.4 3.7-.2 6.1 4.1 6 10.4 13.7 14.3 22.9 11.7 1.4-.4 2-.4 1.5.1-2 1.6-3.7 6-3.3 8.9.3 2.6.7 2.9 3.8 2.8 1.9 0 4.2-.4 5.1-.8 2.3-1 3.2 5 1.1 7.1-3.1 3.1-19.1 13.2-28.2 17.7-12.2 6.1-29.2 12.3-39 14.1-1.4.2-5 .9-8 1.5-11.5 2.2-17.9 2.4-20 .5-1.8-1.7-6.9-1.8-12.9-.3-.8.2-2.4-2.3-4.2-6.7-1.5-3.9-3.3-7.8-3.9-8.7-.8-1.5-.4-2.2 2.8-4.2 5.2-3.2 6.6-5.2 6.6-9.1 0-9.4-7.6-12.7-17.1-7.4-3.1 1.8-3.1 1.8-4.9-.9-.9-1.5-3.5-4.8-5.6-7.4-3.3-4-3.7-5-2.8-6.8.6-1.1 1.5-2 1.9-2 1.8 0 4.3-7.2 3.7-10.5-.8-4.2-3.5-6.5-8.4-7.2-3.5-.5-4.4-.1-8.1 3.2l-4.2 3.8-3.2-2.4c-1.8-1.3-5.1-3.8-7.4-5.4-2.3-1.7-4.2-3.4-4.3-3.9 0-.5.9-2.9 2.1-5.3 3.7-7.6-.2-14.7-8.1-14.7-4.4 0-6.3 1.3-9.6 6.5l-2.3 3.7-8.8-3.8c-5.6-2.5-8.7-4.3-8.4-5.2 2.3-8.3.5-13.9-5.2-16.3-5.7-2.4-11.9 1.8-13.3 9.2l-.7 3.5-5.1-.6c-2.8-.4-6-.9-7.1-1.1-1.1-.2-3.2-.4-4.7-.4-2.7-.1-2.8-.4-2.8-4.9 0-5.4-1.7-8.5-5.9-10.7-6.3-3.2-14.6 2.5-13.5 9.2.2 1.3 0 2.3-.6 2.3-1.2 0-6.6-17-9.1-28.5-5.7-26.8-4.2-58.5 4-84.8 15.8-50.8 54.3-90.9 105.1-109.2 5.2-1.9 10.2-3.4 11-3.4 1-.1 2.2 2 3.3 5.6zm98.6-2.6c33.5 11.2 66.6 37 86.6 67.4 12.1 18.3 22.9 46.5 25.2 65.5.3 2.5.9 6.4 1.3 8.7 1 5.9.4 34.5-.9 42.8-3.1 18.6-10 39.9-17.6 54.2-7.2 13.4-23.6 35.8-28.6 39.1-3 1.9-1-5.8 2.7-10.9 9.2-12.5 7.3-20.4-3.4-14.4-5.5 3.1-6.2 3.1-6.2.2 0-1.3-1.3-4.3-2.8-6.8-3.1-4.7-11-12.9-12.7-12.9-.5 0-1.8-.7-2.8-1.4-1.6-1.2-1.6-1.6-.1-5.1 1.2-3 1.3-4.4.4-6.3-.9-2.1-1.6-2.4-4.3-1.9-1.8.3-3.9.8-4.8 1.2-1.2.4-2-.3-2.9-2.5-1.2-3-7.2-9-9-9-.5 0-1.7-1.6-2.6-3.5-2.3-4.9-7.7-9.4-12.3-10.1l-3.9-.6 1.5-4.3c2.6-7.7-2.1-11-9.6-6.8-2.9 1.7-3.1 1.7-4.6-.2-.8-1.1-1.3-2.7-1-3.5 4.2-14 4.4-15.6 4.1-23.5-.5-9.8-4.3-19.9-10.3-27.2-4.8-5.8-14.3-12.9-19.4-14.4l-3.9-1.3c0-.1.9-2.7 2-5.7 2.8-8 3.1-10.2 3.5-21.8.2-10-.9-17.9-3.8-25.9-1.1-3.2-1-3.5 2.6-6.8 4.2-3.9 7-4.2 13.4-1.8 3.5 1.4 4.6 1.4 5.8.4.8-.7 1.5-1.7 1.5-2.2 0-1.1-5.2-8.9-7.4-11-.7-.8-2-2.7-2.9-4.4-1.7-3.4-1.3-4.5 6.1-15.2 5.1-7.4 9.2-15.8 9.2-19 0-2.9.7-2.8 11.9.9zm-52 62.3c7.2 5.6 8.8 33.9 2.6 44.5-1.8 3.1-2.5 3.5-6.3 3.5-5 .1-6.2-1.2-8.5-9.1-1.9-6.4-2-22.6-.2-28.6 3.4-11.4 7.1-14.4 12.4-10.3zm268.7 1.5c2.3.6 3.1 1.8 5.1 7.7 2.8 8.3 8.8 32.9 9.8 39.9 1 7.8 1.6 11.8 2 14.5 2.2 12.7 2.2 55.2.1 66.7-.2 1-.7 4.7-1.1 8.3-.3 3.6-1 8.1-1.5 10-.5 1.9-1.1 4.8-1.3 6.5-.7 4.4-5.4 23-7.8 30.5-9.7 30.4-25.2 60.5-44 85.5-9.8 13.1-20 24.6-21.3 24.2-.6-.2-1.4-3-1.7-6.3-1.4-13.1-5.7-22.3-14.3-30.2-7.2-6.6-14.1-9.8-25.1-11.8-1.6-.3-3.1-.6-3.2-.8-.2-.2.3-2 1-4.2 2.4-6.7 2.8-10.8 1.4-12.8-1.2-1.6-1.5-1.5-4.4 1.3-1.8 1.6-5.1 4.2-7.4 5.6-4.3 2.8-5.8 2.4-5.9-1.5 0-.8-2-3.6-4.5-6.3L594 576l5-6.3c5.9-7.2 5.9-7.3 8.3-11l1.8-2.8 4.7 2.6c8.4 4.7 15 4.1 19-1.8 4.7-7.1 1.9-15.3-6.9-19.8-2.2-1.1-3.9-2.1-3.9-2.3 0-.2 2-5 4.5-10.7 2.4-5.7 4.5-11 4.5-11.7 0-.8.7-1.1 1.8-.8 8.9 2.4 11.2 2.6 14.7 1.2 7.3-3.1 9.8-11.6 5.3-18.2-2.3-3.3-3-3.7-10.3-5.8-4.3-1.2-4.5-1.6-3.2-9.6 1.2-7.8 1.5-10.4 1.6-13.8l.1-3.2h5.6c9.6 0 15.4-4.6 15.4-12.2s-5-12-13.9-12.2c-3.3-.1-6.2-.4-6.5-.7-.2-.2-.6-3.1-1-6.4-.3-3.3-1.1-8.7-1.6-12-.5-3.3-1-6.1-1-6.1 0-.1 2.7-.9 5.9-1.8 6.2-1.7 11-5.8 11.2-9.7.1-1 .2-2.5.3-3.2.4-2.3-1.5-6.4-3.9-8.7-3.4-3.2-8.1-3.9-14.3-2.2-2.9.8-5.4 1.3-5.5 1.1-.3-.3-5.7-13.1-8.2-19.4-.3-.6.6-2.2 2-3.8 2.4-2.7 2.5-2.7 5.8-1.1 2.8 1.4 3.3 2 2.9 4.4-.5 3.4 3.4 8 6.8 8 2.2 0 7-4.1 7-6 0-.7 1.5-1 3.7-.8 3.2.3 3.8.7 4.5 3.4 2 7.9 11.6 8 13.6.1.7-2.7 1.3-3.2 4.3-3.5 2.9-.2 3.6.1 4.7 2.7 1 2.3 2.2 3.2 4.9 3.7 3.2.6 4 .3 6.1-2.1 1.7-2 2.2-3.6 1.8-5.5-.4-2.3 0-2.9 2.8-4.3 3.3-1.5 3.5-1.5 5.7.9 3 3.2 8.2 3.3 10.3.2 1.9-2.6 2.1-7.4.4-8.4-.7-.5.1-1.7 2.3-3.5 3-2.5 3.6-2.6 5-1.3.9.8 2.9 1.9 4.5 2.3zM506.5 498.8c1.1 5.3 4.3 9.1 10.2 12.1 3.2 1.6 6.8 3.7 8.1 4.7l2.3 1.9-3.5 3.4c-6.4 6.2-18.2 5.2-23.5-2-4.2-5.7-3.6-16.5 1.2-20.9 2.9-2.7 4.4-2.5 5.2.8zm39.8 37.2c6.2 6.9 6.8 12.7 1.9 16.7-5.4 4.5-11.3 2.4-17.2-6.3-3.6-5.1-5.4-6.2-11-6.8-4.9-.5-5.8-1.1-4.4-3.4 1.7-2.7 6-4.3 13.2-5.1 8.1-.8 13.8.8 17.5 4.9zM324 536c2.5.5 6.3 1.2 8.5 1.5 12.2 2 34.3 11.9 47.2 21.1 11.2 8.1 23.4 19.9 29.3 28.4 1.3 1.9 2.7 3.7 3 4 1.9 1.5 12 20.2 13.4 24.7.7 2.3 1.1 2.3-7.1.8-1.6-.3-4.5-.8-6.6-1.1-3.5-.6-3.6-.8-2.2-2.3.8-1 1.8-3.1 2.1-4.8.5-2.6.1-3.7-1.9-5.7-2.9-2.9-6-3.2-9.7-1.1-1.4.8-2.8 1.4-3.1 1.5-.4 0-2.6-2.5-4.9-5.6l-4.2-5.6 2.6-2.7c4.3-4.5 3.2-11-2.2-12.9-3.1-1.1-5.1-.4-8.9 3.1l-2.2 2-4.8-3.8c-2.6-2.1-5.2-4.2-5.6-4.6-.5-.3-.2-2 .7-3.7 2.2-4.3 2-6.9-.9-9.7-4.1-4.2-9.2-2.7-13 3.8-.9 1.7-1.5 1.6-7.3-1l-6.3-2.8.5-4.5c.7-4.9-.3-6.8-4.2-8.9-3.2-1.7-7.5.1-9.2 3.7-2.8 6.2-2.2 5.8-8.5 4.8-.5-.1-1.6-.5-2.3-1-1.2-.7-13.2-18-13.2-19 0-.8 15.5.3 21 1.4zm-55.4 5.1c-3.4 4.1-4.1 7.3-2.9 13.3.6 2.8 1 5.1.9 5.1 0 .1-3 1.3-6.6 2.8-4.8 2-6.6 2.4-6.9 1.5-.2-.7-1.7-2.6-3.3-4.2-2.4-2.3-3.4-2.7-6.1-2.2-3.1.6-5.9 3.4-6.3 6.4-.2.8.4 3.2 1.3 5.4.8 2.1 1.4 4 1.2 4.1-.2.1-2.2 1.6-4.4 3.3-6 4.5-6 4.5-9.1 1.9-8.4-7.3-17.9 3.1-10.2 11.2 2 2.1 2 2.4.4 4.5-.9 1.3-2.6 3.8-3.9 5.5-1.4 2.2-2.7 3.1-3.7 2.7-2-.9-7.3-2.6-8.6-2.9-.5-.2-2.1-2.3-3.4-4.8l-2.4-4.5 4.4-5.3c4.4-5.4 16.3-17.5 21.1-21.5 9.8-8 25.9-16.9 40.3-22 11.4-4 11.3-4 8.2-.3zm301.5 63.3c6.5 4.4 13 6 21.7 5.1 13.8-1.4 19.5-1.2 25.2.7 22.3 7.4 33.8 32.4 24 52-1.6 3.4-2.8 6.9-2.5 7.9.4 1.3-1.2 3.2-6.2 7.2-20.1 16.1-45.9 31.5-68.8 41.1-4.9 2-9.9 4.1-11 4.6-1.1.5-7 2.5-13.1 4.4-9.6 3-13.8 4.2-22.4 6.1-.8.2-3.5.8-6 1.4-16.6 3.7-35.8 5.9-56.3 6.4-6.5.2-7 0-8.5-2.5-.8-1.4-3.2-3.6-5.3-4.7l-3.7-2.1 3.4-7.8c1.9-4.2 3.4-8.3 3.4-9 0-1.5.5-1.5 5.3-.1 7.1 1.9 13.7-2.1 13.7-8.4 0-5.2-2.5-8.4-8-10.2-4.9-1.6-5.1-1.8-4.6-4.8.3-1.8.8-6 1.2-9.5.3-3.4.9-6.2 1.3-6.3.3 0 2.5-.2 4.8-.3 7.6-.6 11.5-4.8 10.6-11.1-.5-3.3-3.9-7.5-6.1-7.5-1 0-1.2-.8-.6-3.3.4-1.7.8-5.3.8-8 0-2.6.3-4.7.6-4.8.3 0 2.3-.2 4.5-.4s6.9-.8 10.5-1.4c9.8-1.6 9.4-1.8 11.4 4.8 2.4 8.2 7 12.1 13.4 11.5 4-.3 7.6-2.5 9.8-6 1.3-1.9 1.5-3.7 1-8.2-1.4-11.1-2.1-9.9 7.9-13.8 5-2 9.4-4 10-4.5 2-1.9 4.1-.7 6.3 3.3 4.1 7.7 10.8 10.5 17.4 7.4 7.3-3.5 8.7-12 3.4-20.4l-2.5-4.1 4.7-3.5c2.6-1.9 4.9-3.5 5.2-3.5.3-.1 2.1 1 4.1 2.3zm-139.8 35.8c1.5.1 2.7.4 2.7.7 0 .3.5 3.3 1 6.6 1.1 6.2 1.4 29.1.5 33.5-.2 1.3-.7 4.2-1 6.5-1.8 13-8.1 30.7-15.1 43-2.6 4.4-4.8 8.2-5 8.4-.3.3-20.7-2.9-21.2-3.4-.6-.5 3.1-6.5 3.9-6.5.4 0 2.4.7 4.5 1.6 3.6 1.5 4.1 1.5 7.1-.1 5.5-3 5.5-8.2 0-12.8l-3.4-2.8 2.6-6.4c2.4-5.9 2.8-6.3 5.1-5.7 6.6 1.7 11.4-1.2 11.2-6.8-.1-3.9-2.4-6.7-6.4-7.5l-3-.7.7-6.6c.4-3.7.9-7 1.1-7.3.2-.4 2-.7 4-.7 4.6 0 7.7-2.9 7.7-7.2 0-4.8-3.6-7.6-10.4-7.9-1.1-.1-1.8-1.9-2.5-7l-.9-6.9 3.6-1.1c2-.6 4.2-1.8 4.8-2.5.7-.8 2.2-1.3 3.4-1 1.2.3 3.4.5 5 .6z"/></svg>